<svg xmlns="http://www.w3.org/2000/svg" width="1600" height="500" viewBox="0 0 1600 500" role="img" aria-labelledby="title desc">
  <title id="title">Maestría en Tecnologías de Información y Comunicación</title>
  <desc id="desc">Banner institucional de la Maestría en TIC de la Universidad del Zulia</desc>
  <defs>
    <linearGradient id="background" x1="0" y1="0" x2="1" y2="1">
      <stop offset="0" stop-color="#1C1E6E"/>
      <stop offset="0.58" stop-color="#2350D2"/>
      <stop offset="1" stop-color="#5375C8"/>
    </linearGradient>
    <pattern id="grid" width="48" height="48" patternUnits="userSpaceOnUse">
      <path d="M48 0H0V48" fill="none" stroke="#FFFFFF" stroke-opacity=".07" stroke-width="1"/>
    </pattern>
  </defs>
  <rect width="1600" height="500" rx="28" fill="url(#background)"/>
  <rect width="1600" height="500" rx="28" fill="url(#grid)"/>
  <circle cx="1415" cy="84" r="230" fill="#FFFFFF" fill-opacity=".06"/>
  <circle cx="1485" cy="430" r="300" fill="#1C1E6E" fill-opacity=".18"/>
  <path d="M1180 150h120v120h-120zM1325 210h88v88h-88zM1240 300h145v80h-145z" fill="none" stroke="#D0BB34" stroke-opacity=".45" stroke-width="3"/>
  <circle cx="1180" cy="150" r="8" fill="#D0BB34"/>
  <circle cx="1300" cy="270" r="8" fill="#D0BB34"/>
  <circle cx="1413" cy="298" r="8" fill="#D0BB34"/>
  <text x="105" y="112" fill="#D0BB34" font-family="Inter,Segoe UI,Arial,sans-serif" font-size="29" font-weight="700" letter-spacing="3">UNIVERSIDAD DEL ZULIA</text>
  <text x="105" y="205" fill="#FFFFFF" font-family="Inter,Segoe UI,Arial,sans-serif" font-size="63" font-weight="800">Maestría en Tecnologías de</text>
  <text x="105" y="280" fill="#FFFFFF" font-family="Inter,Segoe UI,Arial,sans-serif" font-size="63" font-weight="800">Información y Comunicación</text>
  <rect x="105" y="332" width="885" height="3" fill="#D0BB34"/>
  <text x="105" y="390" fill="#FFFFFF" fill-opacity=".92" font-family="Inter,Segoe UI,Arial,sans-serif" font-size="29">Investigación, innovación y transformación digital con impacto social</text>
  <g transform="translate(105 430)">
    <rect width="155" height="44" rx="22" fill="#D0BB34"/>
    <text x="77.5" y="29" text-anchor="middle" fill="#1C1E6E" font-family="Inter,Segoe UI,Arial,sans-serif" font-size="18" font-weight="800">32 UC</text>
    <rect x="174" width="250" height="44" rx="22" fill="#FFFFFF" fill-opacity=".13" stroke="#FFFFFF" stroke-opacity=".35"/>
    <text x="299" y="29" text-anchor="middle" fill="#FFFFFF" font-family="Inter,Segoe UI,Arial,sans-serif" font-size="18" font-weight="700">POSGRADO · LUZ</text>
  </g>
</svg>